<svg width="140" height="100" viewBox="0 0 140 100" fill="none" xmlns="http://www.w3.org/2000/svg">
<path d="M42.85 41.4588H49.0004C52.3909 41.4588 55.1499 38.7272 55.1499 35.3693V34.9967C55.7936 35.2234 56.4787 35.3693 57.2003 35.3693H63.3507C66.7412 35.3693 69.5011 32.6377 69.5011 29.2807V23.1912C69.5011 19.8343 66.7412 17.1017 63.3507 17.1017H57.2003C53.8098 17.1017 51.0499 19.8343 51.0499 23.1912V23.5647C50.4062 23.3371 49.7221 23.1912 49.0004 23.1912H42.85C39.4595 23.1912 36.6996 25.9238 36.6996 29.2807V35.3702C36.7006 38.7272 39.4595 41.4588 42.85 41.4588ZM55.1499 23.1912C55.1499 22.0707 56.0686 21.162 57.2003 21.162H63.3498C64.4815 21.162 65.4002 22.0707 65.4002 23.1912V29.2807C65.4002 30.4013 64.4815 31.3109 63.3498 31.3109H57.2003C56.0686 31.3109 55.1499 30.4013 55.1499 29.2807V23.1912ZM40.7996 29.2807C40.7996 28.1602 41.7183 27.2506 42.85 27.2506H49.0004C50.1312 27.2506 51.0499 28.1602 51.0499 29.2807V35.3702C51.0499 36.4907 50.1312 37.3994 49.0004 37.3994H42.85C41.7183 37.3994 40.7996 36.4907 40.7996 35.3702V29.2807Z" fill="white"/>
<path d="M123.374 50.8179C123.628 49.9594 123.776 49.0879 123.776 48.2052C123.776 46.8514 123.438 45.4996 122.794 44.1663C123.433 42.8246 123.776 41.4467 123.776 40.04C123.776 38.6984 123.444 37.3548 122.81 36.0336C123.446 34.6975 123.776 33.3234 123.776 31.9232C123.776 30.2182 123.259 28.5095 122.24 26.8446C122.221 26.813 122.2 26.7823 122.179 26.7516C115.326 16.8304 93.6616 9.90099 69.5002 9.90099C45.3387 9.90099 23.6744 16.8304 16.7573 26.8473C15.7391 28.5114 15.2221 30.2201 15.2221 31.925C15.2221 33.3159 15.5627 34.6799 16.2046 36.0048C15.5608 37.3363 15.2221 38.69 15.2221 40.0437C15.2221 41.4449 15.5646 42.8162 16.214 44.1505C15.5646 45.4893 15.2221 46.8496 15.2221 48.2098C15.2221 49.0683 15.3619 49.9148 15.6078 50.7473C10.5788 54.055 8 58.0883 8 62.7711C8 76.4107 27.2451 91.09 69.5002 91.09C126.566 91.09 131 69.4144 131 62.7711C131 58.1673 128.417 54.1581 123.374 50.8179ZM119.606 57.1387C119.582 57.2828 119.54 57.4286 119.504 57.5726C119.475 57.6906 119.453 57.8059 119.416 57.9239C119.371 58.0679 119.307 58.21 119.248 58.354C119.201 58.4739 119.159 58.5919 119.104 58.7117C119.038 58.8511 118.955 58.9933 118.877 59.1336C118.809 59.2553 118.749 59.377 118.676 59.4987C118.592 59.6353 118.491 59.7691 118.397 59.9047C118.309 60.033 118.227 60.1584 118.131 60.2866C118.03 60.4167 117.915 60.5468 117.806 60.6769C117.698 60.8069 117.593 60.9389 117.477 61.068C117.359 61.1962 117.226 61.3235 117.1 61.4517C116.97 61.5818 116.847 61.7138 116.71 61.8438C116.575 61.9711 116.425 62.0975 116.281 62.2229C116.134 62.353 115.994 62.4803 115.839 62.6104C115.683 62.7386 115.513 62.864 115.348 62.9922C115.187 63.1177 115.031 63.244 114.861 63.3695C114.689 63.4958 114.5 63.6213 114.32 63.7476C114.142 63.8712 113.97 63.9948 113.783 64.1165C113.593 64.2428 113.387 64.3646 113.188 64.4881C112.994 64.608 112.807 64.7297 112.606 64.8496C112.395 64.975 112.167 65.0995 111.947 65.2231C111.741 65.3383 111.544 65.4544 111.333 65.5678C111.104 65.6914 110.862 65.8112 110.624 65.9329C110.405 66.0472 110.189 66.1606 109.962 66.2721C109.724 66.3882 109.472 66.5016 109.225 66.6168C108.983 66.7301 108.75 66.8444 108.5 66.9559C108.244 67.0692 107.975 67.1807 107.713 67.295C107.458 67.4019 107.212 67.5143 106.952 67.6193C106.679 67.7317 106.394 67.8386 106.115 67.9482C105.849 68.0513 105.589 68.1591 105.316 68.2613C105.027 68.3682 104.726 68.4722 104.431 68.58C104.153 68.6794 103.881 68.7807 103.596 68.8783C103.294 68.9814 102.981 69.0808 102.671 69.1821C102.379 69.2778 102.093 69.3753 101.794 69.4683C101.482 69.5658 101.161 69.6587 100.842 69.7526C100.534 69.8455 100.23 69.9393 99.9143 70.0304C99.5887 70.1242 99.2499 70.2116 98.9177 70.3026C98.5986 70.3899 98.2843 70.4791 97.9605 70.5618C97.6246 70.6492 97.2736 70.7328 96.9311 70.8164C96.7837 70.8527 96.6383 70.8889 96.49 70.9233C97.5439 69.8315 98.1998 68.3598 98.1998 66.732V66.5499C108.022 64.1035 115.418 60.6146 119.66 56.5329C119.656 56.6203 119.647 56.7076 119.639 56.795C119.629 56.9092 119.625 57.0245 119.606 57.1387ZM88.0837 72.5641C87.7655 72.6133 87.454 72.6635 87.134 72.71C86.6714 72.7769 86.1993 72.8363 85.7301 72.8967C86.0013 72.749 86.2735 72.6068 86.524 72.4303C86.7079 72.3002 86.8703 72.1497 87.0401 72.0085C87.286 71.8032 87.53 71.6006 87.7496 71.3692C87.7965 71.3181 87.8585 71.2791 87.9054 71.2289C88.4112 71.6852 88.9996 72.0484 89.6358 72.3188C89.5654 72.3309 89.4979 72.343 89.4284 72.3551C88.9874 72.4285 88.5322 72.4953 88.0837 72.5641ZM77.366 73.6967C76.8377 73.7292 76.2981 73.7515 75.7632 73.7775C75.4375 73.7943 75.1157 73.8147 74.7872 73.8268C74.3255 73.8454 73.8582 73.8547 73.3937 73.8695C72.9836 73.8816 72.5773 73.8974 72.1653 73.9058C71.2841 73.9243 70.3964 73.9327 69.5002 73.9327C40.9516 73.9327 19.5866 64.7436 19.3342 56.4688C27.49 64.332 46.8993 69.8771 69.5002 69.8771C71.194 69.8771 72.9113 69.8343 74.6812 69.7628C75.7078 71.5718 77.4017 72.9376 79.4427 73.5508C79.0636 73.5787 78.6826 73.6057 78.2988 73.6317C77.9872 73.6521 77.6794 73.6781 77.366 73.6967ZM30.1992 46.8068C30.4395 46.9081 30.675 47.0103 30.9209 47.1097C31.2531 47.2435 31.589 47.3736 31.9278 47.5037C32.5256 47.7323 33.1346 47.958 33.7577 48.1773C33.8647 48.2135 33.9688 48.2544 34.0758 48.2907C41.1609 50.7426 49.8469 52.4801 59.4328 53.2067C59.613 53.2215 59.7951 53.2355 59.9762 53.2476C61.0891 53.3265 62.2105 53.3971 63.3479 53.4501V57.5039C37.4832 56.2821 19.5866 47.6031 19.322 40.2063C21.8989 42.6732 25.6338 44.8993 30.1992 46.8068ZM63.9776 61.5893C65.0783 64.0356 67.5295 65.7508 70.3935 65.8028C70.0989 65.8056 69.7911 65.8177 69.5002 65.8177C44.1432 65.8177 24.4589 58.5696 20.1929 51.1505C20.1835 51.1347 20.1788 51.1161 20.1666 51.1022C19.6279 50.1498 19.3342 49.1956 19.3267 48.2544C26.7862 55.4394 43.7012 60.7577 63.9776 61.5893ZM73.6001 65.748C72.6101 65.7805 71.651 65.7889 70.6873 65.7973C71.7242 65.7722 72.7143 65.5473 73.6001 65.1292V65.748ZM98.1998 50.2836C99.4038 49.9854 100.556 49.6648 101.685 49.3341C101.724 49.322 101.761 49.3118 101.798 49.2997C109.852 46.9313 115.964 43.803 119.67 40.2249C119.469 45.3704 110.994 50.842 98.2008 54.2055V50.2836H98.1998ZM119.66 48.3696C119.483 53.5198 111.013 59.0016 98.1998 62.3688V58.3884C108.022 55.943 115.416 52.4522 119.66 48.3696ZM20.2041 29.0447C25.3823 21.5476 43.9799 13.9603 69.5002 13.9603C94.9698 13.9603 113.54 21.5188 118.764 28.9983C119.379 30.0147 119.676 30.9727 119.676 31.9232C119.676 32.9136 119.355 33.9161 118.764 34.9168C118.749 34.9372 118.731 34.954 118.716 34.9763C118.382 35.5282 117.962 36.0782 117.47 36.6199C117.423 36.6729 117.375 36.724 117.329 36.776C117.119 37.0018 116.892 37.2229 116.656 37.4459C116.539 37.5555 116.416 37.6652 116.293 37.7729C116.091 37.9532 115.885 38.1325 115.668 38.3109C115.397 38.5302 115.112 38.7448 114.817 38.9622C114.715 39.0375 114.62 39.1146 114.516 39.1899C114.063 39.5086 113.585 39.8245 113.079 40.1376C113.054 40.1534 113.026 40.1682 113.001 40.184C112.514 40.4823 112.003 40.7768 111.469 41.0695C111.414 41.0992 111.356 41.1299 111.299 41.1605C110.773 41.4449 110.223 41.7245 109.653 41.9986C109.612 42.0191 109.571 42.0395 109.53 42.059C107.677 42.9463 105.604 43.7807 103.345 44.55C103.219 44.5927 103.089 44.6345 102.961 44.6754C102.374 44.8724 101.77 45.0629 101.156 45.2496C100.943 45.3147 100.727 45.3797 100.512 45.4429C99.95 45.6092 99.3766 45.7699 98.7957 45.926C98.5667 45.9892 98.3434 46.0515 98.1116 46.1128C97.3177 46.32 96.5097 46.5225 95.6839 46.7139C94.7558 46.9248 94.0989 47.7453 94.0989 48.6865V66.7329C94.0989 67.8534 93.1812 68.7621 92.0494 68.7621C90.9177 68.7621 89.999 67.8534 89.999 66.7329V65.8159C89.999 64.6925 89.0831 63.7857 87.9495 63.7857C86.8149 63.7857 85.899 64.6925 85.899 65.8159C85.899 68.0541 84.0597 69.8752 81.7991 69.8752C79.9945 69.8752 78.4761 68.7054 77.9281 67.0999C77.9244 67.0841 77.9281 67.0683 77.9244 67.0535C77.8512 66.8323 77.7977 66.6251 77.7601 66.4263C77.7292 66.2256 77.6991 66.0249 77.6991 65.8177V58.7136C77.6991 57.5912 76.7832 56.6835 75.6487 56.6835C74.5151 56.6835 73.5992 57.5912 73.5992 58.7136C73.5992 60.3925 72.2197 61.7584 70.524 61.7584C69.0216 61.7584 67.7725 60.6861 67.507 59.2739C67.5042 59.2674 67.5088 59.2618 67.507 59.2534C67.476 59.0788 67.4488 58.8985 67.4488 58.7117V51.498C67.4488 50.4026 66.5695 49.505 65.4631 49.4688C63.8105 49.4177 62.1927 49.3341 60.604 49.2244C60.36 49.2086 60.1263 49.1845 59.8842 49.1659C58.4907 49.0628 57.1131 48.9429 55.7721 48.7961C55.6679 48.7868 55.5694 48.772 55.4643 48.7599C33.7389 46.3283 19.3211 38.5748 19.3211 31.9259C19.322 30.9587 19.6317 29.9869 20.2041 29.0447ZM69.5002 87.0297C27.3868 87.0297 12.0999 72.5232 12.0999 62.7702C12.0999 60.3879 13.1491 58.184 15.2277 56.1799C15.2239 56.231 15.2221 56.2812 15.2221 56.322C15.2221 68.2706 39.5693 77.993 69.4992 77.993C99.4301 77.993 123.777 68.2706 123.777 56.322C123.777 56.3072 123.777 56.2932 123.777 56.2793C125.852 58.276 126.899 60.4483 126.899 62.7702C126.9 80.6568 97.2492 87.0297 69.5002 87.0297Z" fill="white"/>
<path d="M76.833 43.947C94.906 43.947 114.118 38.7838 114.118 29.2138C114.118 28.0914 113.202 27.1837 112.068 27.1837C110.934 27.1837 110.018 28.0914 110.018 29.2138C110.018 34.2516 95.8256 39.8876 76.833 39.8876C75.6994 39.8876 74.7825 40.7954 74.7825 41.9178C74.7825 43.0402 75.6994 43.947 76.833 43.947Z" fill="white"/>
</svg>
