<svg width="140" height="100" viewBox="0 0 140 100" fill="none" xmlns="http://www.w3.org/2000/svg">
<path d="M87.5947 7.92079C86.0456 7.92329 84.5717 8.57496 83.5387 9.71413C82.5066 10.8525 82.0133 12.37 82.1822 13.8891C82.3241 15.0633 82.8714 16.1541 83.7321 16.9775L19.5457 52.9183C19.4824 52.965 19.4224 53.0158 19.365 53.0692C19.2636 53.1392 19.1699 53.22 19.0854 53.3092C19.0111 53.3967 18.9469 53.4917 18.8928 53.5917C18.8312 53.6867 18.7796 53.7875 18.7399 53.8925C18.7028 54.0092 18.6783 54.1292 18.6656 54.2508C18.6487 54.325 18.6352 54.4008 18.6276 54.4767V81.665C16.1291 82.5334 14.6299 85.0525 15.0792 87.6284C15.5277 90.2034 17.7939 92.0842 20.4427 92.0792H114.818C119.827 92.0734 123.887 88.0684 123.893 83.1259V49.4292C124.074 47.1383 125.073 29.9883 114.44 18.3941C108.07 11.445 99.0371 7.92079 87.5947 7.92079ZM22.2579 77.7542H27.7025C28.7051 77.7542 29.5176 76.9525 29.5176 75.9634C29.5176 74.975 28.7051 74.1733 27.7025 74.1733H22.2579V70.5917H45.8514C46.854 70.5917 47.6666 69.79 47.6666 68.8017C47.6666 67.8125 46.854 67.0108 45.8514 67.0108H22.2579V63.4292H27.7025C28.7051 63.4292 29.5176 62.6275 29.5176 61.6392C29.5176 60.65 28.7051 59.8483 27.7025 59.8483H22.2579V56.2675H113.003V65.22H109.373C108.371 65.22 107.559 66.0217 107.559 67.0108C107.559 68 108.371 68.8017 109.373 68.8017H113.003V72.3825H98.4839C97.4813 72.3825 96.6687 73.1842 96.6687 74.1733C96.6687 75.1617 97.4813 75.9634 98.4839 75.9634H113.003V79.545C113.003 80.5342 112.191 81.3359 111.188 81.3359H22.2579V77.7542ZM113.04 48.4992C113.013 48.7 113.001 48.9025 113.003 49.105V52.6858H109.468C109.649 47.0492 109.232 30.9175 99.304 26.015C98.407 25.5725 97.3166 25.9316 96.8689 26.8175C96.4204 27.7025 96.7845 28.7783 97.6815 29.22C105.704 33.1808 105.974 47.7633 105.829 52.6858H27.3173L88.0576 18.6733C96.0319 18.7608 102.186 21.075 106.342 25.5616C114.293 34.2108 113.043 48.4275 113.04 48.4992ZM120.263 83.1259C120.263 86.0925 117.825 88.4984 114.818 88.4984H20.4427C19.4401 88.4984 18.6276 87.6967 18.6276 86.7075C18.6276 85.7184 19.4401 84.9167 20.4427 84.9167H111.188C114.195 84.9167 116.633 82.5117 116.633 79.545V54.4475C116.638 53.8083 116.989 53.22 117.553 52.9042C118.117 52.5892 118.809 52.5942 119.368 52.9183C119.927 53.2433 120.268 53.8367 120.263 54.4767V83.1259ZM120.263 49.205C120.26 49.255 120.26 49.305 120.263 49.355V49.4342C119.094 48.9942 117.802 48.9942 116.633 49.4342V48.9417C116.651 48.7858 118.101 33.0325 109.019 23.1575C104.119 17.8625 97.0066 15.1475 87.887 15.0883C86.886 15.14 85.9949 14.4683 85.7829 13.5025C85.7255 12.9933 85.8902 12.4841 86.2357 12.1025C86.5811 11.7208 87.0752 11.5025 87.5947 11.5025C97.9687 11.5025 106.094 14.63 111.749 20.7975C121.483 31.4116 120.423 47.4158 120.263 49.205Z" fill="white"/>
</svg>
