<svg width="140" height="100" viewBox="0 0 140 100" fill="none" xmlns="http://www.w3.org/2000/svg">
<path d="M91.4714 26.4362H90.4085C89.6892 26.4362 89.088 26.9803 89.0199 27.6929L86.6288 52.6823C86.5914 53.0718 86.7208 53.4585 86.9853 53.7479C87.2496 54.0373 87.6245 54.2021 88.0174 54.2021H91.4713C99.1629 54.2021 105.42 47.9741 105.42 40.3191C105.421 32.6642 99.163 26.4362 91.4714 26.4362ZM91.4714 51.4256H89.5516L91.6768 29.2146C97.7356 29.3242 102.631 34.2633 102.631 40.3191C102.631 46.4433 97.6248 51.4256 91.4714 51.4256Z" fill="white"/>
<path d="M92.4718 20.9081L92.8602 16.8497C92.8976 16.4602 92.7681 16.0735 92.5037 15.7841C92.2394 15.4949 91.8646 15.3299 91.4716 15.3299H87.2868V13.9416C87.2868 10.1138 84.158 7 80.3123 7C78.4126 7 76.6416 7.75785 75.3526 9.05843C74.0635 7.75768 72.2925 7 70.393 7C68.4933 7 66.7223 7.75785 65.4332 9.05843C64.1442 7.75768 62.3732 7 60.4735 7C58.5738 7 56.8028 7.75768 55.5139 9.05843C54.2248 7.75785 52.4538 7 50.5542 7C46.7083 7 43.5797 10.1138 43.5797 13.9415V15.3297H39.3949C39.0019 15.3297 38.6271 15.4949 38.3628 15.7839C38.0984 16.0733 37.9689 16.4601 38.0063 16.8495L42.5281 64.1017C43.1778 70.8911 49.2812 76.4146 56.1339 76.4146H61.2485V80.2562C58.5198 80.8098 56.3652 82.9544 55.8088 85.6701H48.6943C44.8484 85.6703 41.7197 88.7841 41.7197 92.6117C41.7197 93.3786 42.3441 94 43.1146 94H87.7517C88.5222 94 89.1466 93.3786 89.1466 92.6117C89.1466 88.7841 86.0179 85.6703 82.1721 85.6703H75.0556C74.4994 82.9547 72.3463 80.8102 69.6179 80.2564V76.4148H74.7325C81.5853 76.4148 87.6886 70.8911 88.3382 64.1017L88.7543 59.7553H91.4713C102.239 59.7553 111 51.0363 111 40.3191C111 29.9355 102.777 21.4277 92.4718 20.9081ZM46.3694 13.9415C46.3694 11.645 48.2468 9.77652 50.5542 9.77652C52.1261 9.77652 53.5517 10.6421 54.2746 12.0351C54.514 12.4966 54.9922 12.7867 55.5139 12.7867C56.036 12.7867 56.5143 12.4968 56.7535 12.0351C57.4762 10.6421 58.9016 9.77652 60.4735 9.77652C62.0456 9.77652 63.471 10.6421 64.1937 12.0351C64.4329 12.4966 64.9112 12.7867 65.4332 12.7867C65.9552 12.7867 66.4332 12.4968 66.6728 12.0351C67.3955 10.6421 68.8211 9.77652 70.3932 9.77652C71.9651 9.77652 73.3905 10.6421 74.1132 12.0351C74.3524 12.4966 74.8306 12.7867 75.3527 12.7867C75.8746 12.7867 76.3527 12.4968 76.5922 12.0351C77.3149 10.6421 78.7405 9.77652 80.3125 9.77652C82.6199 9.77652 84.4972 11.645 84.4972 13.9415V15.3297H46.3694V13.9415ZM84.3323 18.1064L83.5352 26.4362H47.3308L46.5337 18.1064H84.3323ZM72.1677 85.6703H62.6433C61.8728 85.6703 61.2485 86.2917 61.2485 87.0585C61.2485 87.8254 61.8728 88.4468 62.6433 88.4468H82.1721C83.9907 88.4468 85.5419 89.6073 86.1178 91.2233H44.7485C45.3244 89.6073 46.8756 88.4468 48.6943 88.4468H57.0637C57.8342 88.4468 58.4585 87.8254 58.4585 87.0585C58.4585 84.762 60.3359 82.8936 62.6433 82.8936C63.4138 82.8936 64.0382 82.2722 64.0382 81.5053V76.415H66.8279V81.5053C66.8279 82.2722 67.4523 82.8936 68.2228 82.8936C70.0414 82.8936 71.592 84.0545 72.1677 85.6703ZM91.4714 56.9788H87.4859C86.7669 56.9788 86.1655 57.5229 86.0973 58.2355L85.5611 63.8389C85.0441 69.2424 80.1863 73.6384 74.7323 73.6384H56.1335C50.6799 73.6384 45.8221 69.2424 45.3047 63.8389L40.9289 18.1064H43.7313L44.6746 27.9655C44.6747 27.9675 47.5531 58.0472 47.5531 58.0472C47.6217 58.7658 48.2292 59.3042 48.9399 59.3042C48.9842 59.3042 49.0291 59.302 49.0738 59.2977C49.8407 59.225 50.4033 58.5473 50.3302 57.784L47.5966 29.2127H83.2697L80.0067 63.3123C79.7677 65.8101 77.2538 68.085 74.7326 68.085H56.1339C53.6127 68.085 51.0988 65.8101 50.8598 63.3121C50.7869 62.549 50.1064 61.9889 49.3389 62.0617C48.5722 62.1344 48.0096 62.812 48.0825 63.5753C48.4602 67.525 52.1473 70.8617 56.1337 70.8617H74.7325C78.7189 70.8617 82.406 67.5252 82.7836 63.5757L86.1907 27.9701C86.1914 27.9621 87.1347 18.1064 87.1347 18.1064H89.9374L89.5516 22.1397C89.5142 22.5292 89.6436 22.9159 89.9081 23.2053C90.1723 23.4947 90.5473 23.6595 90.9401 23.6595H91.4714C100.701 23.6595 108.21 31.133 108.21 40.3191C108.21 49.5053 100.701 56.9788 91.4714 56.9788Z" fill="white"/>
</svg>
