<svg width="100" height="80" viewBox="0 0 100 80" fill="none" xmlns="http://www.w3.org/2000/svg">
<path d="M47.8245 65.6001C45.0795 65.6001 42.8572 68.1456 42.8572 71.2001C42.8572 74.1818 45.0141 76.8001 47.8245 76.8001C50.6348 76.8001 52.8572 74.182 52.8572 71.2001C52.8572 68.1456 50.5698 65.6001 47.8245 65.6001Z" stroke="white" stroke-width="5"/>
<path d="M48.7221 3.2002C35.8922 3.2002 30 11.7101 30 17.4545C30 21.6035 33.136 23.5182 35.7021 23.5182C40.8339 23.5182 38.7433 15.3271 48.437 15.3271C53.1889 15.3271 56.9904 17.6676 56.9904 22.5608C56.9904 28.3055 51.6684 31.603 48.5321 34.5815C45.7762 37.2409 42.1647 41.6025 42.1647 50.7509C42.1647 56.2823 43.495 57.8781 47.3916 57.8781C52.0484 57.8781 52.9986 55.5379 52.9986 53.5167C52.9986 47.985 53.094 44.7938 58.321 40.2197C60.8868 37.9858 68.9651 30.7521 68.9651 20.7526C68.9651 10.7531 60.8869 3.2002 48.7221 3.2002Z" stroke="white" stroke-width="5"/>
</svg>
