<svg width="100" height="80" viewBox="0 0 100 80" fill="none" xmlns="http://www.w3.org/2000/svg">
<path d="M86.6859 59.9051L75.8942 48.3504C74.445 46.8073 72.5043 45.9571 70.4305 45.9571C68.2723 45.9571 66.2346 46.8665 64.6939 48.5164L60.4932 53.0113C57.2289 51.0694 52.8904 48.3987 48.386 43.5779C43.8868 38.761 41.3911 34.1313 39.5675 30.6189L43.7722 26.122C46.8984 22.7693 46.9624 17.3904 43.9153 14.1323L33.1258 2.58449C31.6805 1.03341 29.7398 0.179199 27.6607 0.179199C25.5508 0.179199 23.5548 1.04862 22.0231 2.6311C21.0964 3.42978 16.4462 7.82317 14.7131 16.8837C12.2865 29.5656 17.8618 41.7676 33.9569 59.0004C51.9366 78.237 67.2858 79.7323 71.5619 79.7323C72.4521 79.7323 72.9892 79.6734 73.1325 79.6556C81.5177 78.6037 84.52 74.6182 86.7122 71.7081C89.5526 67.9366 89.5427 62.9739 86.6859 59.9051ZM83.105 68.5957C81.0445 71.3309 79.0986 73.9141 72.5935 74.7303C72.5902 74.7306 72.2343 74.7732 71.5619 74.7732C67.7361 74.7732 53.9532 73.3828 37.2332 55.4939C22.3906 39.602 17.181 28.7038 19.2521 17.878C20.7637 9.97523 24.777 6.61622 24.933 6.48862L25.0714 6.3792L25.1928 6.24895C25.8627 5.53259 26.739 5.13788 27.6604 5.13788C28.4993 5.13788 29.2753 5.47441 29.8473 6.08862L40.6393 17.639C41.881 18.9666 41.8149 21.2007 40.4938 22.6175L35.7386 27.7025L35.6604 27.7901C34.4212 29.2509 34.567 31.2251 35.2496 32.5108C37.2193 36.3151 39.9174 41.5253 45.1091 47.0833C50.2834 52.6212 55.1446 55.5065 58.6893 57.6106C59.0442 57.8238 59.7769 58.1815 60.6939 58.1815C61.7769 58.1815 62.7712 57.6909 63.5072 56.7967L67.9699 52.0218C68.6362 51.3085 69.5097 50.9154 70.4298 50.9154C71.2706 50.9154 72.0505 51.2529 72.6213 51.8605L83.4059 63.4076C84.7758 64.879 84.2102 67.1286 83.105 68.5957Z" fill="white"/>
<path d="M59.4042 12.3284C63.3847 12.8186 68.0717 15.3991 71.3446 18.9023C74.6481 22.4378 77.065 27.5049 77.5015 31.8114C77.6303 33.0818 78.6342 34.0233 79.8017 34.0233C79.8851 34.0233 79.9698 34.0183 80.0544 34.0087C81.3264 33.861 82.2456 32.6378 82.1075 31.2765C81.5555 25.8329 78.6867 19.7479 74.6209 15.3962C70.5931 11.0851 64.9656 8.02227 59.9339 7.40244C58.6635 7.24475 57.5141 8.22194 57.3677 9.58194C57.2213 10.9419 58.1328 12.1717 59.4042 12.3284Z" fill="white"/>
<path d="M57.2399 22.7146C59.3928 22.98 62.3722 24.6891 64.324 26.7781C66.2925 28.8852 67.8925 32.1043 68.1282 34.4333C68.257 35.704 69.2609 36.6455 70.4285 36.6455C70.5118 36.6455 70.5962 36.6405 70.6808 36.631C71.9528 36.4832 72.8723 35.26 72.7342 33.8987C72.3315 29.9225 69.8651 25.6961 67.5997 23.2716C65.3548 20.8686 61.4444 18.2415 57.7696 17.7883C56.4973 17.63 55.3495 18.6075 55.2031 19.9675C55.057 21.3278 55.9688 22.5579 57.2399 22.7146Z" fill="white"/>
</svg>
