<svg width="100" height="80" viewBox="0 0 100 80" fill="none" xmlns="http://www.w3.org/2000/svg">
<path d="M14.2857 75.0001H85.7143C87.608 74.9983 89.4236 74.3392 90.7627 73.1675C92.1018 71.9958 92.855 70.4072 92.8571 68.7501V28.7501C92.8545 27.6605 92.5275 26.5903 91.9085 25.6448C91.2894 24.6994 90.3996 23.9113 89.3266 23.3583L53.6123 5.03937C52.5165 4.47801 51.2697 4.18213 50 4.18213C48.7302 4.18213 47.4834 4.47801 46.3876 5.03937L10.6734 23.3583C9.60039 23.9113 8.71055 24.6994 8.09149 25.6448C7.47242 26.5903 7.14546 27.6605 7.14282 28.7501V68.7501C7.14495 70.4072 7.89818 71.9958 9.23727 73.1675C10.5764 74.3392 12.3919 74.9983 14.2857 75.0001ZM90 68.7501C89.9986 69.7444 89.5467 70.6975 88.7432 71.4005C87.9398 72.1035 86.8505 72.499 85.7143 72.5001H14.2857C13.1494 72.499 12.0601 72.1035 11.2567 71.4005C10.4532 70.6975 10.0013 69.7444 9.99997 68.7501V30.9319L46.3876 49.5962C47.4834 50.1576 48.7302 50.4535 50 50.4535C51.2697 50.4535 52.5165 50.1576 53.6123 49.5962L90 30.9319V68.7501ZM12.1184 25.515L47.8326 7.19609C48.4901 6.85928 49.2381 6.68175 50 6.68175C50.7618 6.68175 51.5099 6.85928 52.1673 7.19609L87.8816 25.515C88.4115 25.7884 88.8683 26.1581 89.2211 26.5991C89.574 27.0401 89.8146 27.5421 89.9269 28.0714L52.1673 47.4395C51.5099 47.7763 50.7618 47.9538 50 47.9538C49.2382 47.9538 48.4901 47.7763 47.8326 47.4395L10.073 28.0714C10.1853 27.5421 10.426 27.0401 10.7788 26.5991C11.1316 26.1581 11.5884 25.7884 12.1184 25.515Z" fill="#DAAD86" stroke="#DAAD86" stroke-width="3"/>
</svg>
