<svg width="249" height="67" viewBox="0 0 249 67" fill="none" xmlns="http://www.w3.org/2000/svg">
<path d="M26 29C26.693 28.8599 27.407 28.8599 28.1 29C30.22 29.45 31.78 31.2 33.2 32.84C37.69 38.07 42.45 43 47.14 48C48.77 49.74 50.46 51.43 52.05 53.2C52.62 53.83 54.11 55.14 53.99 56.13C53.84 57.5 50.99 59.45 49.99 59.97C47.28 61.35 44.43 61.49 41.55 62.47C37.4793 63.938 33.1464 64.5376 28.83 64.23C28.1056 64.207 27.3982 64.0046 26.7712 63.6409C26.1443 63.2771 25.6174 62.7635 25.2378 62.1461C24.8582 61.5286 24.6378 60.8266 24.5963 60.103C24.5548 59.3794 24.6935 58.6568 25 58C26.13 55.71 30.85 53.12 32 50.87C33.42 48.19 33.3 46.09 31.28 43.76C30.0519 42.3921 28.526 41.3247 26.82 40.64C24.7359 39.7766 22.8252 38.5434 21.18 37C18.92 34.75 20.66 31.94 22.93 30.33C23.8465 29.6723 24.8934 29.2188 26 29Z" fill="#B4C195"/>
<path d="M16.33 38.53C15.6603 38.5182 15.0023 38.7062 14.44 39.07C11.16 41.2 8.35999 44.61 6.04999 47.73C4.10999 50.36 1.04999 53.73 2.73999 57.22C3.56164 58.7152 4.78413 59.9516 6.26999 60.79C8.26999 62.05 11.78 63.97 14.27 63.35C16.36 62.82 15.07 60.4 15.04 59C15.01 57.6 16.99 54.88 18.04 54C20.31 52.09 20.69 52 22.4 49.53C24.11 47.06 24.48 44.89 22.65 42.41C21.2 40.49 18.83 38.53 16.33 38.53Z" fill="#B4C195"/>
<path d="M74 52.1C73.1453 51.938 72.3464 51.5592 71.68 51C71.0381 50.4121 70.4796 49.7392 70.02 49C70.24 48.54 70.5 47.94 70.8 47.2C71.1 46.45 71.46 45.54 71.89 44.44C72.32 43.34 72.89 42.04 73.44 40.52C73.99 39 74.74 37.21 75.53 35.17C76.03 33.88 76.45 32.79 76.77 31.9C77.09 31.01 77.37 30.14 77.6 29.29C77.83 28.44 78.05 27.49 78.27 26.46C78.49 25.43 78.73 24.12 79.02 22.54C80.0408 22.7334 80.9927 23.1921 81.78 23.87C82.622 24.5917 83.3442 25.4422 83.92 26.39C83.571 26.8486 83.2631 27.3372 83 27.85C82.65 28.53 82.26 29.36 81.83 30.32L80.39 33.52C79.86 34.7 79.31 35.94 78.73 37.26C77.558 39.8353 76.5362 42.4764 75.67 45.17C74.9703 47.4431 74.4126 49.7576 74 52.1ZM79.43 37.77C80.9234 35.5566 82.3934 33.5233 83.84 31.67C85.1338 29.9886 86.5227 28.3826 88 26.86C89.1057 25.6976 90.3251 24.649 91.64 23.73C92.469 23.0815 93.4708 22.6919 94.52 22.61C94.8807 22.633 95.2275 22.7578 95.52 22.97C95.9144 23.2299 96.2682 23.5467 96.57 23.91C96.8878 24.29 97.1597 24.7062 97.38 25.15C97.5804 25.5476 97.6897 25.9849 97.7 26.43C96.1865 26.9195 94.7232 27.5524 93.33 28.32C91.8891 29.1071 90.5146 30.0101 89.22 31.02C87.8907 32.0589 86.6406 33.1954 85.48 34.42C84.2973 35.6614 83.2202 36.9994 82.26 38.42C82.6802 39.4931 83.1542 40.5445 83.68 41.57C84.2419 42.6804 84.8593 43.7617 85.53 44.81C86.1786 45.8247 86.9005 46.7906 87.69 47.7C88.3633 48.5082 89.14 49.2243 90 49.83C89.8557 50.1227 89.6472 50.379 89.39 50.58C89.0951 50.828 88.7807 51.0521 88.45 51.25C88.1166 51.4534 87.761 51.6178 87.39 51.74C87.0679 51.8508 86.7306 51.9115 86.39 51.92C86.0484 51.9057 85.7142 51.8158 85.4116 51.6567C85.109 51.4976 84.8455 51.2733 84.64 51C83.9649 50.2102 83.4121 49.3237 83 48.37C82.3579 46.9234 81.7905 45.4448 81.3 43.94C80.76 42.18 80.1 40.12 79.38 37.77H79.43Z" fill="white"/>
<path d="M104.15 48.39C103.703 48.0154 103.382 47.5128 103.23 46.95C103.093 46.468 103.016 45.9709 103 45.47C102.991 45.0331 103.052 44.5976 103.18 44.18C103.08 44.18 102.87 44.37 102.53 44.75C102.19 45.13 101.83 45.59 101.43 46.12C101.03 46.65 100.65 47.12 100.26 47.67L99.4 48.78C99.1333 49.0745 98.8386 49.3425 98.52 49.58C98.323 49.7347 98.0942 49.844 97.85 49.9C97.4388 49.8735 97.0323 49.7962 96.64 49.67C96.2244 49.5345 95.8278 49.3463 95.46 49.11C95.0815 48.8764 94.7437 48.5825 94.46 48.24C94.1865 47.9067 93.9978 47.5121 93.91 47.09C93.91 46.42 93.91 45.87 93.91 45.44C93.953 44.9651 94.0298 44.4939 94.14 44.03C94.398 43.031 94.7988 42.0744 95.33 41.19C95.8295 40.2897 96.5105 39.5031 97.33 38.88C97.5811 38.8828 97.8317 38.9028 98.08 38.94C98.3831 38.9742 98.6815 39.0413 98.97 39.14C99.2645 39.2325 99.5519 39.3461 99.83 39.48C100.099 39.5997 100.338 39.7773 100.53 40C99.9207 41.131 99.4088 42.312 99 43.53C98.4682 44.6982 98.0464 45.9135 97.74 47.16C97.73 47.3121 97.7611 47.464 97.83 47.6C97.8767 47.6748 97.9302 47.7451 97.99 47.81C98.5298 47.5206 98.998 47.114 99.36 46.62C99.91 45.98 100.68 44.98 101.66 43.62C101.9 43.28 102.18 42.9 102.51 42.46C102.84 42.02 103.16 41.57 103.51 41.08C103.86 40.59 104.16 40.08 104.46 39.55C104.751 39.042 104.999 38.5101 105.2 37.96C105.3 37.68 105.42 37.33 105.58 36.96C105.747 36.5363 105.937 36.1223 106.15 35.72C106.393 35.2661 106.66 34.8255 106.95 34.4C107.253 33.9487 107.605 33.5327 108 33.16C108.336 33.1652 108.671 33.202 109 33.27C109.339 33.3371 109.673 33.4273 110 33.54C110.293 33.635 110.578 33.7555 110.85 33.9C111.053 34.0032 111.236 34.142 111.39 34.31C110.96 35.37 110.48 36.41 109.95 37.44C109.42 38.47 108.95 39.49 108.47 40.49C108.025 41.4652 107.641 42.4672 107.32 43.49C107.016 44.4202 106.858 45.3915 106.85 46.37C106.842 46.8102 106.886 47.2499 106.98 47.68C107.046 47.9997 107.136 48.314 107.25 48.62C107.325 48.836 107.416 49.0465 107.52 49.25C107.592 49.3824 107.633 49.5294 107.64 49.68C107.63 49.7234 107.605 49.7622 107.57 49.79C107.547 49.7976 107.523 49.7976 107.5 49.79C107.279 49.7847 107.06 49.7477 106.85 49.68C106.551 49.5978 106.257 49.4977 105.97 49.38C105.629 49.2475 105.295 49.0973 104.97 48.93C104.688 48.7633 104.414 48.5831 104.15 48.39Z" fill="white"/>
<path d="M117.15 42.16C116.69 43.1 116.25 44.08 115.81 45.16C115.415 46.8438 114.807 48.4702 114 50C113.727 50.389 113.389 50.7274 113 51C112.506 50.7277 112.113 50.3033 111.88 49.79C111.641 49.2785 111.459 48.7418 111.34 48.19C111.356 47.6086 111.423 47.0297 111.54 46.46C111.67 45.77 111.85 44.99 112.08 44.14C112.31 43.29 112.59 42.4 112.92 41.46C113.25 40.52 113.63 39.59 114.04 38.65C114.75 36.9246 115.586 35.2535 116.54 33.65C116.935 32.9419 117.426 32.2923 118 31.72C118.692 31.9683 119.297 32.4131 119.74 33C120.297 33.638 120.725 34.3784 121 35.18C120.39 36.4655 119.706 37.7143 118.95 38.92L118.66 39.42C118.798 40.3158 119.14 41.1678 119.66 41.91C120.056 42.4695 120.649 42.8588 121.32 43C122.062 42.7862 122.711 42.3281 123.16 41.7C123.3 41.49 123.45 41.26 123.59 41.02C123.846 40.1867 124.181 39.3797 124.59 38.61C125.127 37.6384 125.757 36.7209 126.47 35.87C127.159 35.0364 127.944 34.2878 128.81 33.64C129.85 32.7587 131.149 32.2392 132.51 32.16C133.486 32.7899 134.271 33.6753 134.78 34.72H135.11H135.43C136.7 34.72 137.34 35.85 137.34 38.11C137.346 39.5755 137.095 41.0307 136.6 42.41C136.133 43.7379 135.457 44.9834 134.6 46.1C133.722 47.2 132.663 48.1433 131.47 48.89C130.238 49.649 128.885 50.1902 127.47 50.49C126.827 50.439 126.202 50.2521 125.637 49.9419C125.071 49.6316 124.578 49.2049 124.19 48.69C123.35 47.5295 122.92 46.1219 122.97 44.69C122.968 44.3288 122.992 43.9679 123.04 43.61C122.344 44.2704 121.496 44.748 120.57 45C120.148 44.9466 119.739 44.8215 119.36 44.63C118.897 44.3758 118.487 44.0366 118.15 43.63C117.749 43.1899 117.412 42.6949 117.15 42.16ZM129.31 39.1C128.89 39.6758 128.506 40.277 128.16 40.9C127.806 41.5453 127.495 42.2134 127.23 42.9C126.977 43.5205 126.769 44.1589 126.61 44.81C126.479 45.3471 126.409 45.8972 126.4 46.45C126.395 47.0131 126.493 47.5724 126.69 48.1C126.88 48.63 127.09 48.93 127.33 49C128.414 48.7669 129.437 48.3068 130.33 47.65C131.247 46.9722 132.039 46.1397 132.67 45.19C133.353 44.1579 133.875 43.0285 134.22 41.84C134.599 40.5407 134.788 39.1934 134.78 37.84C134.789 37.3476 134.752 36.8555 134.67 36.37C134.61 36.0369 134.488 35.7181 134.31 35.43C133.275 35.7323 132.315 36.2465 131.49 36.94C130.69 37.5825 129.96 38.3064 129.31 39.1Z" fill="white"/>
<path d="M152.28 37C152.16 37.2867 152.03 37.5767 151.89 37.87C151.38 38.87 150.89 39.94 150.37 41.05C149.85 42.16 149.37 43.27 149.02 44.35C148.658 45.279 148.458 46.2633 148.43 47.26C148.383 47.6088 148.461 47.9631 148.65 48.26C148.727 48.343 148.822 48.4076 148.928 48.4491C149.033 48.4907 149.147 48.508 149.26 48.5C149.539 48.5004 149.815 48.4425 150.07 48.33C150.247 48.2468 150.436 48.1927 150.63 48.17C150.756 48.2534 150.846 48.3823 150.88 48.53C150.889 48.6632 150.889 48.7968 150.88 48.93C150.426 49.3137 149.934 49.6488 149.41 49.93C148.884 50.1858 148.305 50.3158 147.72 50.31C147.227 50.3262 146.737 50.2269 146.29 50.02C145.926 49.8355 145.614 49.5641 145.38 49.23C145.137 48.8573 144.974 48.4386 144.9 48C144.805 47.5361 144.758 47.0636 144.76 46.59C144.763 45.7697 144.871 44.9531 145.08 44.16C145.293 43.3782 145.554 42.6101 145.86 41.86C146.142 41.1776 146.46 40.5101 146.81 39.86C147.15 39.22 147.43 38.65 147.67 38.15L148.43 36.35C148.33 36.28 148.23 36.2 148.11 36.13C147.791 35.9494 147.457 35.7987 147.11 35.68C146.782 35.5569 146.448 35.4501 146.11 35.36C145.87 35.2858 145.621 35.2421 145.37 35.23C145.105 35.2374 144.849 35.3207 144.63 35.47C144.377 35.6267 144.142 35.8112 143.93 36.02C143.729 36.2237 143.542 36.4408 143.37 36.67C143.26 36.8144 143.169 36.9724 143.1 37.14C142.53 36.963 142.002 36.6702 141.55 36.28C141.073 35.7795 140.783 35.1295 140.73 34.44C141.181 33.6445 141.744 32.9172 142.4 32.28C142.934 31.8169 143.59 31.5182 144.29 31.42C145.415 31.8839 146.499 32.4426 147.53 33.09C148.486 33.6863 149.377 34.38 150.19 35.16C150.55 34.97 150.9 34.78 151.19 34.58C151.568 34.3724 151.976 34.2272 152.4 34.15C152.72 34.3452 152.995 34.6069 153.206 34.9174C153.416 35.228 153.557 35.5801 153.62 35.95C153.431 36.336 153.162 36.6771 152.83 36.95C152.655 37.018 152.464 37.0353 152.28 37Z" fill="white"/>
<path d="M167.51 34.28C167.448 35.59 167.181 36.8823 166.72 38.11C166.298 39.1638 165.665 40.1202 164.86 40.92C163.986 41.7756 163.001 42.509 161.93 43.1C160.639 43.8107 159.303 44.4354 157.93 44.97C157.93 45.11 157.93 45.26 157.93 45.42C157.93 45.58 157.93 45.74 157.93 45.9C157.933 46.2344 157.957 46.5683 158 46.9C158.049 47.2193 158.136 47.5316 158.26 47.83C158.365 48.1019 158.537 48.3428 158.76 48.53C158.996 48.716 159.29 48.8117 159.59 48.8C160.25 48.7985 160.903 48.6517 161.5 48.37C162.127 48.0765 162.723 47.7214 163.28 47.31C163.838 46.8912 164.366 46.4334 164.86 45.94C165.353 45.4533 165.793 45.0033 166.18 44.59C166.42 44.81 166.62 45.01 166.79 45.2C165.789 46.564 164.593 47.7736 163.24 48.79C162.159 49.6355 160.917 50.2514 159.59 50.6C158.119 50.5022 156.738 49.8564 155.72 48.79C154.797 47.7856 154.299 46.4633 154.33 45.1C154.335 44.0857 154.476 43.0766 154.75 42.1C155.021 41.0606 155.407 40.0544 155.9 39.1C156.39 38.1538 156.97 37.2564 157.63 36.42C158.254 35.6109 158.964 34.8731 159.75 34.22C160.435 33.6403 161.191 33.1497 162 32.76C162.749 32.4118 163.564 32.2277 164.39 32.22C165.021 32.3393 165.621 32.5829 166.157 32.9366C166.693 33.2902 167.152 33.7469 167.51 34.28ZM165 35.46C164.286 35.5875 163.605 35.8597 163 36.26C162.245 36.7218 161.57 37.3026 161 37.98C160.351 38.7575 159.788 39.6023 159.32 40.5C158.809 41.4844 158.413 42.5246 158.14 43.6C159.971 42.7366 161.621 41.5317 163 40.05C164.184 38.8017 164.892 37.1771 165 35.46Z" fill="white"/>
<path d="M181.41 29.81C180.033 30.3288 178.588 30.6454 177.12 30.75C175.37 34.151 174.005 37.7365 173.05 41.44C174.362 39.0211 175.964 36.7712 177.82 34.74C178.54 33.9546 179.337 33.2443 180.2 32.62C180.74 32.1782 181.396 31.9036 182.09 31.83C182.49 31.929 182.869 32.0983 183.21 32.33C183.583 32.5748 183.92 32.871 184.21 33.21C184.496 33.5518 184.738 33.9281 184.93 34.33C185.118 34.7206 185.239 35.1396 185.29 35.57C185.249 36.6605 185.074 37.7419 184.77 38.79C184.436 39.949 184.001 41.0766 183.47 42.16C182.933 43.2592 182.318 44.3186 181.63 45.33C180.992 46.2914 180.258 47.186 179.44 48C178.765 48.6985 178.006 49.3099 177.18 49.82C176.54 50.2433 175.796 50.4821 175.03 50.51C174.734 50.5088 174.44 50.4786 174.15 50.42C173.865 50.362 173.587 50.2749 173.32 50.16C173.103 50.074 172.897 49.9597 172.71 49.82C172.647 49.7807 172.594 49.728 172.555 49.6658C172.515 49.6035 172.489 49.5332 172.48 49.46C173.669 48.6382 174.757 47.6781 175.72 46.6C176.783 45.4223 177.747 44.1579 178.6 42.82C179.451 41.4763 180.184 40.0609 180.79 38.59C181.353 37.2272 181.759 35.8047 182 34.35C182.002 34.2134 181.957 34.0804 181.871 33.9743C181.785 33.8682 181.664 33.7958 181.53 33.77C181.19 33.77 180.73 34.07 180.14 34.65C179.452 35.363 178.804 36.1142 178.2 36.9C177.487 37.82 176.767 38.84 176.04 39.96C175.31 41.09 174.64 42.21 174.04 43.33C173.44 44.45 172.93 45.49 172.51 46.46C172.156 47.2058 171.92 48.0019 171.81 48.82C171.57 48.82 171.37 48.58 171.2 48.1C171.14 47.9596 171.055 47.831 170.95 47.72C170.771 47.5434 170.577 47.3827 170.37 47.24C170.24 47.1338 170.12 47.0167 170.01 46.89C169.911 46.7888 169.827 46.6744 169.76 46.55C169.641 46.2551 169.59 45.9373 169.61 45.62C169.631 44.0093 169.812 42.4048 170.15 40.83C170.527 38.992 171.005 37.1759 171.58 35.39C172.163 33.5346 172.855 31.7148 173.65 29.94C174.391 28.2518 175.219 26.6029 176.13 25C176.879 23.6675 177.742 22.4028 178.71 21.22C179.367 20.383 180.2 19.7003 181.15 19.22C181.45 19.3145 181.741 19.4349 182.02 19.58C182.35 19.75 182.69 19.94 183.02 20.16C183.35 20.38 183.67 20.59 183.97 20.81C184.214 20.9735 184.439 21.1648 184.64 21.38C184.965 21.7127 185.221 22.1069 185.393 22.5395C185.565 22.9722 185.649 23.4346 185.64 23.9C185.633 24.6962 185.473 25.4837 185.17 26.22C184.88 26.9869 184.41 27.6728 183.8 28.22C183.101 28.8843 182.293 29.4223 181.41 29.81ZM181.05 27.11C182.61 25.46 183.39 23.99 183.39 22.72C183.393 22.6798 183.387 22.6394 183.373 22.6015C183.359 22.5637 183.338 22.5291 183.31 22.5C181.342 24.3752 179.637 26.5079 178.24 28.84C178.802 28.6091 179.344 28.3314 179.86 28.01C180.274 27.7334 180.671 27.4329 181.05 27.11Z" fill="white"/>
<path d="M186.37 42.84C186.365 41.4614 186.655 40.0976 187.22 38.84C187.763 37.581 188.517 36.4243 189.45 35.42C190.357 34.4344 191.43 33.6154 192.62 33C193.759 32.4047 195.025 32.0925 196.31 32.09C197.354 32.0204 198.384 32.3532 199.19 33.02C199.536 33.3689 199.804 33.7873 199.977 34.2476C200.149 34.7079 200.222 35.1995 200.19 35.69C200.191 36.2324 200.11 36.7718 199.95 37.29C199.81 37.7754 199.605 38.2396 199.34 38.67C199.112 39.0559 198.814 39.3952 198.46 39.67C198.179 39.9056 197.827 40.0395 197.46 40.05C197.147 40.0427 196.843 39.9492 196.58 39.78C196.283 39.6063 196.03 39.3669 195.84 39.08C197.45 37.62 198.25 36.28 198.25 35.08C198.25 34.39 197.98 34.08 197.42 34.08C196.77 34.1435 196.149 34.3781 195.62 34.76C194.852 35.2674 194.152 35.8725 193.54 36.56C191.493 38.8192 190.362 41.7612 190.37 44.81C190.37 46.75 190.8 47.92 191.67 48.3C192.095 48.2298 192.513 48.1228 192.92 47.98C193.451 47.7905 193.968 47.5667 194.47 47.31C195.02 47.03 195.59 46.72 196.18 46.36C196.77 46 197.34 45.61 197.89 45.2C197.999 45.2904 198.088 45.4028 198.15 45.53C198.213 45.6504 198.248 45.784 198.25 45.92C197.823 46.4496 197.355 46.9445 196.85 47.4C196.329 47.876 195.774 48.3138 195.19 48.71C194.659 49.0838 194.1 49.418 193.52 49.71C192.973 50.0821 192.319 50.2632 191.659 50.2253C190.999 50.1873 190.37 49.9323 189.87 49.5C189.164 49.0746 188.546 48.5179 188.05 47.86C187.516 47.1628 187.1 46.3823 186.82 45.55C186.518 44.6787 186.365 43.7623 186.37 42.84Z" fill="white"/>
<path d="M206.53 42.09C206.316 42.3497 206.126 42.6274 205.96 42.92C205.35 43.9257 204.86 44.9998 204.5 46.12C204.049 47.526 203.672 48.9546 203.37 50.4C203.1 50.3639 202.837 50.2864 202.59 50.17C201.969 49.8892 201.393 49.5185 200.88 49.07C200.68 48.9046 200.519 48.6961 200.41 48.46C200.53 47.76 200.74 46.85 201.04 45.71C201.34 44.57 201.7 43.35 202.1 42.07C202.5 40.79 202.94 39.5 203.4 38.2C203.86 36.9 204.3 35.74 204.73 34.71C204.971 34.1102 205.248 33.5258 205.56 32.96C205.775 32.5733 206.041 32.2168 206.35 31.9C206.707 31.9523 207.058 32.036 207.4 32.15C207.741 32.2741 208.075 32.4176 208.4 32.58C208.712 32.7352 209.013 32.9123 209.3 33.11C209.526 33.2553 209.731 33.4302 209.91 33.63C209.239 34.4367 208.665 35.3194 208.2 36.26C207.627 37.4702 207.143 38.7201 206.75 40C208.04 38.84 209.19 37.74 210.19 36.68C211.219 35.5977 212.159 34.4339 213 33.2C213.223 33.0577 213.487 32.9943 213.75 33.02C214.09 33.0163 214.428 33.0704 214.75 33.18C215.008 33.2536 215.234 33.4122 215.39 33.63C214.973 34.7222 214.756 35.8808 214.75 37.05C214.698 37.8664 214.856 38.6825 215.21 39.42C215.104 39.7248 214.941 40.0065 214.73 40.25C214.427 40.6586 214.093 41.0431 213.73 41.4C213.065 41.0549 212.476 40.5787 212 40C211.509 39.4324 211.129 38.7777 210.88 38.07C209.905 38.7359 208.979 39.4711 208.11 40.27H208.18C208.663 40.2907 209.14 40.3921 209.59 40.57C210.028 40.7398 210.434 40.9833 210.79 41.29C211.138 41.5907 211.426 41.9535 211.64 42.36C211.864 42.792 211.974 43.2738 211.96 43.76C211.96 43.98 211.96 44.19 211.96 44.41C211.96 46.11 211.96 47.31 211.96 48.01C211.915 48.216 211.916 48.4294 211.963 48.635C212.009 48.8407 212.101 49.0335 212.23 49.2C212.32 49.297 212.428 49.3751 212.548 49.4301C212.668 49.485 212.798 49.5156 212.93 49.52C213.171 49.5148 213.407 49.4532 213.62 49.34C213.795 49.2394 213.989 49.178 214.19 49.16C214.246 49.1935 214.295 49.2384 214.333 49.2918C214.371 49.3452 214.397 49.4059 214.41 49.47C214.455 49.6021 214.479 49.7405 214.48 49.88C214.301 50.0592 214.111 50.2263 213.91 50.38C213.685 50.5538 213.448 50.7109 213.2 50.85C212.97 50.9898 212.73 51.1103 212.48 51.21C212.282 51.3024 212.068 51.3535 211.85 51.36C211.407 51.3857 210.964 51.3033 210.56 51.12C210.235 50.9301 209.982 50.6384 209.84 50.29C209.613 49.7785 209.484 49.229 209.46 48.67C209.388 47.708 209.388 46.742 209.46 45.78C209.56 44.53 209.61 43.71 209.61 43.33C209.656 42.8545 209.512 42.38 209.21 42.01C208.939 41.7596 208.579 41.6266 208.21 41.64C207.869 41.6457 207.531 41.7065 207.21 41.82C206.976 41.8902 206.748 41.9806 206.53 42.09Z" fill="white"/>
<path d="M221.76 50.44C221.117 50.389 220.492 50.2022 219.927 49.8919C219.361 49.5816 218.868 49.1549 218.48 48.64C217.64 47.4795 217.21 46.0719 217.26 44.64C217.264 43.6249 217.409 42.6154 217.69 41.64C217.988 40.5976 218.4 39.5914 218.92 38.64C219.448 37.6619 220.074 36.7404 220.79 35.89C221.479 35.0564 222.264 34.3078 223.13 33.66C224.173 32.7767 225.475 32.2571 226.84 32.18C227.811 32.8137 228.592 33.6983 229.1 34.74H229.43H229.75C231.02 34.74 231.66 35.87 231.66 38.13C231.666 39.5955 231.415 41.0507 230.92 42.43C230.456 43.7597 229.781 45.0058 228.92 46.12C227.133 48.3663 224.619 49.9188 221.81 50.51L221.76 50.44ZM223.6 39.1C223.173 39.6732 222.786 40.2746 222.44 40.9C222.086 41.5453 221.775 42.2134 221.51 42.9C221.255 43.5191 221.051 44.1578 220.9 44.81C220.761 45.3459 220.688 45.8965 220.68 46.45C220.679 47.0127 220.778 47.5712 220.97 48.1C221.16 48.63 221.38 48.93 221.62 49C222.704 48.7669 223.727 48.3068 224.62 47.65C225.537 46.9722 226.329 46.1398 226.96 45.19C227.64 44.1575 228.159 43.028 228.5 41.84C228.884 40.5417 229.072 39.1937 229.06 37.84C229.074 37.3475 229.037 36.8549 228.95 36.37C228.89 36.0369 228.768 35.7181 228.59 35.43C227.556 35.7344 226.596 36.2484 225.77 36.94C224.974 37.5826 224.246 38.3065 223.6 39.1Z" fill="white"/>
<path d="M246.28 34.28C246.22 35.5912 245.95 36.8843 245.48 38.11C245.058 39.1614 244.429 40.1171 243.63 40.92C242.756 41.7756 241.771 42.509 240.7 43.1C239.409 43.8102 238.073 44.4349 236.7 44.97C236.7 45.11 236.7 45.26 236.7 45.42C236.69 45.5798 236.69 45.7402 236.7 45.9C236.698 46.2346 236.722 46.5689 236.77 46.9C236.816 47.2189 236.9 47.5312 237.02 47.83C237.128 48.1026 237.304 48.3434 237.53 48.53C237.762 48.7161 238.053 48.812 238.35 48.8C239.011 48.7996 239.663 48.6527 240.26 48.37C240.876 48.0722 241.46 47.7102 242 47.29C242.564 46.8738 243.095 46.4158 243.59 45.92C244.08 45.43 244.52 44.98 244.9 44.57C245.116 44.7606 245.319 44.9643 245.51 45.18C244.51 46.5413 243.317 47.7506 241.97 48.77C240.886 49.616 239.64 50.2319 238.31 50.58C236.84 50.4775 235.461 49.8324 234.44 48.77C233.503 47.7712 232.987 46.4495 233 45.08C233.006 44.0665 233.144 43.0581 233.41 42.08C233.686 41.0421 234.071 40.0364 234.56 39.08C235.054 38.1359 235.633 37.2388 236.29 36.4C236.917 35.5907 237.631 34.8529 238.42 34.2C239.129 33.6025 239.916 33.1046 240.76 32.72C241.509 32.3718 242.324 32.1877 243.15 32.18C243.785 32.3045 244.389 32.5543 244.926 32.9149C245.464 33.2755 245.924 33.7395 246.28 34.28ZM243.79 35.46C243.075 35.5847 242.394 35.8572 241.79 36.26C241.037 36.7251 240.362 37.3055 239.79 37.98C239.141 38.7554 238.581 39.6006 238.12 40.5C237.634 41.489 237.258 42.5287 237 43.6C238.805 42.7272 240.43 41.523 241.79 40.05C242.975 38.8022 243.683 37.1773 243.79 35.46Z" fill="white"/>
<path d="M8.73002 35.62C5.80002 32.88 1.66002 25.62 3.73002 18.42C6.32002 9.33999 17.15 2.17999 26.73 3.87999C33.37 5.05999 41.24 11.79 43.21 19.21C45.18 26.63 42.61 34 40 34C36.24 34 31.31 27.54 28.88 25.31C22.76 19.71 20.55 24.65 17.65 30.56C17.07 31.74 14.48 37.03 11.27 36.9C10.2951 36.7989 9.39127 36.3434 8.73002 35.62Z" fill="#DAAD86"/>
</svg>
